<svg width="1080" height="1920" viewBox="0 0 1080 1920" fill="none" xmlns="http://www.w3.org/2000/svg">
<g clip-path="url(#clip0_1885_806)">
<rect width="1920" height="1080" transform="translate(0 1920) rotate(-90)" fill="#C8CEFF"/>
<path d="M397.782 316.723C342.449 451.723 234.949 522.556 75.2824 529.223C-84.3843 535.89 -174.718 468.39 -195.718 326.723C-216.718 185.056 -205.551 62.8895 -162.218 -39.7772C-118.884 -142.444 -35.051 -198.777 89.2824 -208.777C213.616 -218.777 309.949 -167.444 378.282 -54.7772C446.616 57.8895 453.116 181.723 397.782 316.723Z" stroke="#4F46E5" stroke-width="10"/>
<path d="M1347.81 2010.53C1243.81 2117.87 1131.31 2168.87 1010.31 2163.53C889.31 2158.2 800.143 2104.53 742.81 2002.53C685.477 1900.53 680.81 1790.2 728.81 1671.53C776.81 1552.87 869.81 1492.7 1007.81 1491.03C1145.81 1489.37 1262.98 1548.7 1359.31 1669.03C1455.64 1789.37 1451.81 1903.2 1347.81 2010.53Z" stroke="#4F46E5" stroke-width="10"/>
<path d="M272.81 1924.53C168.81 2031.87 56.3101 2082.87 -64.6899 2077.53C-185.69 2072.2 -274.857 2018.53 -332.19 1916.53C-389.523 1814.53 -394.19 1704.2 -346.19 1585.53C-298.19 1466.87 -205.19 1406.7 -67.1899 1405.03C70.8101 1403.37 187.977 1462.7 284.31 1583.03C380.643 1703.37 376.81 1817.2 272.81 1924.53Z" stroke="#4F46E5" stroke-width="10"/>
<path d="M1086.63 621.745C939.549 595.217 834.504 530.235 771.493 426.799C708.483 323.362 703.345 219.418 756.079 114.966C808.814 10.514 897.821 -54.8542 1023.1 -81.1388C1148.38 -107.423 1250.17 -63.7407 1328.46 49.9093C1406.76 163.559 1422.8 293.91 1376.58 440.961C1330.36 588.011 1233.71 648.273 1086.63 621.745Z" stroke="#4F46E5" stroke-width="10"/>
<g clip-path="url(#clip1_1885_806)">
<path d="M1080 0H-13V1943H1080V0Z" fill="white"/>
<path d="M1299.91 1910.8C1275.62 1959.38 1239.18 1989.74 1190.61 2001.88C1142.03 2014.03 1093.45 2014.03 1044.87 2001.88C996.296 1989.74 959.862 1959.38 935.573 1910.8C911.284 1862.23 917.357 1819.73 953.79 1783.29C990.223 1746.86 1026.66 1716.5 1063.09 1692.22C1099.52 1667.93 1135.96 1667.93 1172.39 1692.22C1208.82 1716.5 1245.26 1746.86 1281.69 1783.29C1318.12 1819.73 1324.2 1862.23 1299.91 1910.8Z" stroke="#FFADAD" stroke-width="14.9985"/>
<path d="M187.383 1044.36C150.95 1068.65 126.661 1099.01 114.517 1135.44C102.372 1171.87 78.0833 1184.01 41.6499 1171.87C5.21659 1159.73 -37.289 1147.58 -85.8667 1135.44C-134.445 1123.3 -158.733 1099.01 -158.733 1062.58C-158.733 1026.15 -152.661 989.715 -140.517 953.284C-128.372 916.852 -110.156 886.493 -85.8667 862.205C-61.5778 837.918 -31.2167 831.846 5.21659 843.99C41.6499 856.134 72.011 874.349 96.2999 898.637C120.589 922.924 150.95 947.212 187.383 971.499C223.817 995.787 223.817 1020.07 187.383 1044.36Z" stroke="#FFD6A5" stroke-width="14.9985"/>
<path d="M228.333 116.803C204.044 153.234 179.756 183.594 155.467 207.881C131.178 232.169 94.7445 244.313 46.1667 244.313C-2.41111 244.313 -44.9167 232.169 -81.35 207.881C-117.783 183.594 -136 153.234 -136 116.803C-136 80.3719 -136 43.9406 -136 7.50938C-136 -28.9219 -117.783 -59.2812 -81.35 -83.5687C-44.9167 -107.856 -2.41111 -120 46.1667 -120C94.7445 -120 137.25 -113.928 173.683 -101.784C210.117 -89.6406 234.406 -59.2812 246.55 -10.7062C258.694 37.8688 252.622 80.3719 228.333 116.803Z" stroke="#FDFFB6" stroke-width="14.9985"/>
<path d="M155.467 1977.23C106.889 2037.95 46.1667 2056.17 -26.7 2031.88C-99.5667 2007.59 -136 1959.02 -136 1886.16C-136 1813.29 -99.5667 1758.65 -26.7 1722.22C46.1667 1685.78 106.889 1704 155.467 1776.86C204.044 1849.73 204.044 1916.52 155.467 1977.23Z" fill="#CAFFBF"/>
<path d="M743.9 105.372C719.611 141.803 695.322 166.091 671.033 178.234C646.744 190.378 610.311 202.522 561.733 214.666C513.156 226.809 476.722 214.666 452.433 178.234C428.144 141.803 416 99.3 416 50.725C416 2.14999 434.217 -34.2813 470.65 -58.5688C507.083 -82.8563 543.517 -95 579.95 -95C616.383 -95 652.817 -88.9281 689.25 -76.7844C725.683 -64.6406 749.972 -40.3531 762.117 -3.92188C774.261 32.5094 768.189 68.9406 743.9 105.372Z" stroke="#9BF6FF" stroke-width="14.9985"/>
<path d="M715.078 2039.38C676.625 2103.47 618.946 2135.51 542.039 2135.51C465.133 2135.51 413.862 2103.47 388.227 2039.38C362.591 1975.3 362.591 1911.21 388.227 1847.13C413.862 1783.04 465.133 1751 542.039 1751C618.946 1751 676.625 1783.04 715.078 1847.13C753.532 1911.21 753.532 1975.3 715.078 2039.38Z" fill="#A0C4FF"/>
<path d="M1192.6 144.264C1144.02 168.552 1107.59 186.767 1083.3 198.911C1059.01 211.055 1034.72 204.983 1010.43 180.695C986.144 156.408 974 126.048 974 89.6172C974 53.1859 986.144 16.7547 1010.43 -19.6766C1034.72 -56.1078 1065.08 -56.1078 1101.52 -19.6766C1137.95 16.7547 1174.38 47.1141 1210.82 71.4016C1247.25 95.6891 1241.18 119.977 1192.6 144.264Z" stroke="#BDB2FF" stroke-width="14.9985"/>
<path d="M1263.59 1086.09C1233.52 1131.19 1195.93 1161.26 1150.82 1176.3C1105.71 1191.33 1060.6 1191.33 1015.5 1176.3C970.386 1161.26 940.314 1131.19 925.277 1086.09C910.241 1040.98 910.241 995.872 925.277 950.766C940.314 905.66 970.386 875.589 1015.5 860.553C1060.6 845.518 1113.23 838 1173.38 838C1233.52 838 1271.11 868.071 1286.15 928.213C1301.19 988.355 1293.67 1040.98 1263.59 1086.09Z" fill="#E8CAFF"/>
</g>
</g>
<defs>
<clipPath id="clip0_1885_806">
<rect width="1920" height="1080" fill="white" transform="translate(0 1920) rotate(-90)"/>
</clipPath>
<clipPath id="clip1_1885_806">
<rect width="1093" height="1943" fill="white" transform="translate(-13)"/>
</clipPath>
</defs>
</svg>
